<svg id="visual" viewBox="0 0 900 600" width="900" height="600" xmlns="http://www.w3.org/2000/svg" xmlns:xlink="http://www.w3.org/1999/xlink" version="1.1"><rect x="0" y="0" width="900" height="600" fill="#202124"></rect><path d="M0 193L18.8 200.7C37.7 208.3 75.3 223.7 112.8 218.7C150.3 213.7 187.7 188.3 225.2 185C262.7 181.7 300.3 200.3 337.8 210.7C375.3 221 412.7 223 450.2 226.5C487.7 230 525.3 235 562.8 233C600.3 231 637.7 222 675.2 213.8C712.7 205.7 750.3 198.3 787.8 194.8C825.3 191.3 862.7 191.7 881.3 191.8L900 192L900 601L881.3 601C862.7 601 825.3 601 787.8 601C750.3 601 712.7 601 675.2 601C637.7 601 600.3 601 562.8 601C525.3 601 487.7 601 450.2 601C412.7 601 375.3 601 337.8 601C300.3 601 262.7 601 225.2 601C187.7 601 150.3 601 112.8 601C75.3 601 37.7 601 18.8 601L0 601Z" fill="#202124"></path><path d="M0 275L18.8 269.3C37.7 263.7 75.3 252.3 112.8 248.5C150.3 244.7 187.7 248.3 225.2 243.5C262.7 238.7 300.3 225.3 337.8 229.5C375.3 233.7 412.7 255.3 450.2 266.5C487.7 277.7 525.3 278.3 562.8 272.3C600.3 266.3 637.7 253.7 675.2 249.7C712.7 245.7 750.3 250.3 787.8 255.3C825.3 260.3 862.7 265.7 881.3 268.3L900 271L900 601L881.3 601C862.7 601 825.3 601 787.8 601C750.3 601 712.7 601 675.2 601C637.7 601 600.3 601 562.8 601C525.3 601 487.7 601 450.2 601C412.7 601 375.3 601 337.8 601C300.3 601 262.7 601 225.2 601C187.7 601 150.3 601 112.8 601C75.3 601 37.7 601 18.8 601L0 601Z" fill="#2c3038"></path><path d="M0 252L18.8 254.5C37.7 257 75.3 262 112.8 264.8C150.3 267.7 187.7 268.3 225.2 275.2C262.7 282 300.3 295 337.8 300.2C375.3 305.3 412.7 302.7 450.2 300.2C487.7 297.7 525.3 295.3 562.8 286C600.3 276.7 637.7 260.3 675.2 252.7C712.7 245 750.3 246 787.8 250.7C825.3 255.3 862.7 263.7 881.3 267.8L900 272L900 601L881.3 601C862.7 601 825.3 601 787.8 601C750.3 601 712.7 601 675.2 601C637.7 601 600.3 601 562.8 601C525.3 601 487.7 601 450.2 601C412.7 601 375.3 601 337.8 601C300.3 601 262.7 601 225.2 601C187.7 601 150.3 601 112.8 601C75.3 601 37.7 601 18.8 601L0 601Z" fill="#37414e"></path><path d="M0 343L18.8 339.5C37.7 336 75.3 329 112.8 327.8C150.3 326.7 187.7 331.3 225.2 325.2C262.7 319 300.3 302 337.8 294.3C375.3 286.7 412.7 288.3 450.2 295C487.7 301.7 525.3 313.3 562.8 320.2C600.3 327 637.7 329 675.2 325.5C712.7 322 750.3 313 787.8 310.8C825.3 308.7 862.7 313.3 881.3 315.7L900 318L900 601L881.3 601C862.7 601 825.3 601 787.8 601C750.3 601 712.7 601 675.2 601C637.7 601 600.3 601 562.8 601C525.3 601 487.7 601 450.2 601C412.7 601 375.3 601 337.8 601C300.3 601 262.7 601 225.2 601C187.7 601 150.3 601 112.8 601C75.3 601 37.7 601 18.8 601L0 601Z" fill="#405364"></path><path d="M0 340L18.8 339C37.7 338 75.3 336 112.8 344.7C150.3 353.3 187.7 372.7 225.2 373.2C262.7 373.7 300.3 355.3 337.8 351.5C375.3 347.7 412.7 358.3 450.2 366.5C487.7 374.7 525.3 380.3 562.8 383.2C600.3 386 637.7 386 675.2 378.2C712.7 370.3 750.3 354.7 787.8 351C825.3 347.3 862.7 355.7 881.3 359.8L900 364L900 601L881.3 601C862.7 601 825.3 601 787.8 601C750.3 601 712.7 601 675.2 601C637.7 601 600.3 601 562.8 601C525.3 601 487.7 601 450.2 601C412.7 601 375.3 601 337.8 601C300.3 601 262.7 601 225.2 601C187.7 601 150.3 601 112.8 601C75.3 601 37.7 601 18.8 601L0 601Z" fill="#48657b"></path><path d="M0 384L18.8 390.5C37.7 397 75.3 410 112.8 409.5C150.3 409 187.7 395 225.2 391.8C262.7 388.7 300.3 396.3 337.8 398.2C375.3 400 412.7 396 450.2 395.8C487.7 395.7 525.3 399.3 562.8 401.8C600.3 404.3 637.7 405.7 675.2 403.3C712.7 401 750.3 395 787.8 392C825.3 389 862.7 389 881.3 389L900 389L900 601L881.3 601C862.7 601 825.3 601 787.8 601C750.3 601 712.7 601 675.2 601C637.7 601 600.3 601 562.8 601C525.3 601 487.7 601 450.2 601C412.7 601 375.3 601 337.8 601C300.3 601 262.7 601 225.2 601C187.7 601 150.3 601 112.8 601C75.3 601 37.7 601 18.8 601L0 601Z" fill="#4e7991"></path><path d="M0 439L18.8 439.2C37.7 439.3 75.3 439.7 112.8 441.2C150.3 442.7 187.7 445.3 225.2 448.7C262.7 452 300.3 456 337.8 457.8C375.3 459.7 412.7 459.3 450.2 455.8C487.7 452.3 525.3 445.7 562.8 439.7C600.3 433.7 637.7 428.3 675.2 425.2C712.7 422 750.3 421 787.8 423C825.3 425 862.7 430 881.3 432.5L900 435L900 601L881.3 601C862.7 601 825.3 601 787.8 601C750.3 601 712.7 601 675.2 601C637.7 601 600.3 601 562.8 601C525.3 601 487.7 601 450.2 601C412.7 601 375.3 601 337.8 601C300.3 601 262.7 601 225.2 601C187.7 601 150.3 601 112.8 601C75.3 601 37.7 601 18.8 601L0 601Z" fill="#538ea8"></path><path d="M0 492L18.8 490.2C37.7 488.3 75.3 484.7 112.8 477.8C150.3 471 187.7 461 225.2 458.8C262.7 456.7 300.3 462.3 337.8 465.2C375.3 468 412.7 468 450.2 468.7C487.7 469.3 525.3 470.7 562.8 474.7C600.3 478.7 637.7 485.3 675.2 485.8C712.7 486.3 750.3 480.7 787.8 481.5C825.3 482.3 862.7 489.7 881.3 493.3L900 497L900 601L881.3 601C862.7 601 825.3 601 787.8 601C750.3 601 712.7 601 675.2 601C637.7 601 600.3 601 562.8 601C525.3 601 487.7 601 450.2 601C412.7 601 375.3 601 337.8 601C300.3 601 262.7 601 225.2 601C187.7 601 150.3 601 112.8 601C75.3 601 37.7 601 18.8 601L0 601Z" fill="#56a3be"></path><path d="M0 508L18.8 508.5C37.7 509 75.3 510 112.8 509.2C150.3 508.3 187.7 505.7 225.2 506.2C262.7 506.7 300.3 510.3 337.8 509C375.3 507.7 412.7 501.3 450.2 498.2C487.7 495 525.3 495 562.8 495C600.3 495 637.7 495 675.2 495.8C712.7 496.7 750.3 498.3 787.8 504.2C825.3 510 862.7 520 881.3 525L900 530L900 601L881.3 601C862.7 601 825.3 601 787.8 601C750.3 601 712.7 601 675.2 601C637.7 601 600.3 601 562.8 601C525.3 601 487.7 601 450.2 601C412.7 601 375.3 601 337.8 601C300.3 601 262.7 601 225.2 601C187.7 601 150.3 601 112.8 601C75.3 601 37.7 601 18.8 601L0 601Z" fill="#59b9d2"></path><path d="M0 566L18.8 564.7C37.7 563.3 75.3 560.7 112.8 562.2C150.3 563.7 187.7 569.3 225.2 568.7C262.7 568 300.3 561 337.8 560.8C375.3 560.7 412.7 567.3 450.2 568.2C487.7 569 525.3 564 562.8 563.2C600.3 562.3 637.7 565.7 675.2 567C712.7 568.3 750.3 567.7 787.8 568.5C825.3 569.3 862.7 571.7 881.3 572.8L900 574L900 601L881.3 601C862.7 601 825.3 601 787.8 601C750.3 601 712.7 601 675.2 601C637.7 601 600.3 601 562.8 601C525.3 601 487.7 601 450.2 601C412.7 601 375.3 601 337.8 601C300.3 601 262.7 601 225.2 601C187.7 601 150.3 601 112.8 601C75.3 601 37.7 601 18.8 601L0 601Z" fill="#5ccfe6"></path></svg>